<?xml version="1.0" encoding="utf-8"?>
<!-- Generator: Adobe Illustrator 26.3.1, SVG Export Plug-In . SVG Version: 6.00 Build 0)  -->
<svg version="1.1" id="Layer_1" xmlns="http://www.w3.org/2000/svg" xmlns:xlink="http://www.w3.org/1999/xlink" x="0px" y="0px"
	 viewBox="0 0 360 154.9" style="enable-background:new 0 0 360 154.9;" xml:space="preserve">
<style type="text/css">
	.st0{fill-rule:evenodd;clip-rule:evenodd;}
</style>
<g>
	<g>
		<path class="st0" d="M190.9,54L190.9,54v-0.1c-0.1-0.2-2.5-4.4-6.6-4.4c-1.1,0-3.4,3.4-6.8,10c-2.4,4.6-4.5,9.4-4.8,9.9
			c-5.1,8.6-15.4,19.9-17.5,19.9c-0.6,0-0.6-0.6-0.6-0.9c-0.2-4.4,14.2-30.4,17.8-35.2l0-0.1l0-0.1c-0.1-0.2-2.4-4.8-7.4-4.8
			c-3.2,0-12.2,18.4-16.7,30.6l-0.1,0.1c-6.1,8-13.8,16.6-15.5,16.6c-0.9,0-1.5-0.7-1.5-1.8c-0.1-3.8,3.8-10.8,7.4-17
			c3.1-5.4,5.7-10,5.6-12.3c-0.1-2.6-4.7-7.5-8.9-11.3l-0.3-0.2l0.2-0.3c1.4-1.8,4.6-6.6,4.5-11.5c-0.1-3-3.7-5.7-6.4-5.7
			c-1.5,0-2.9,1.1-3.9,2.1c-2.3,2.4-3.9,5.9-3.8,8.2c0.1,2.4,1.4,4.8,1.8,5.4l0.1,0.1l-0.1,0.2c-1.8,5-7.1,9.4-11.1,11.7l-0.3,0.1
			l-0.2-0.2c-0.8-0.8-1.6-1.5-2.3-2l-0.3-0.2l0.2-0.3c1.2-1.4,2.2-2.6,3-3.3l0.1-0.1l-0.1-0.1c-0.1-0.1-1.6-1.8-3.7-3l-0.8-0.5
			l0.9-0.2c1.9-0.5,2.9-0.7,2.9-0.7l0.1,0v-0.1c-0.1-3.2-1.9-8.1-4.4-7.7c-4.9,0.8-12.2,2.8-17.5,4.4l-0.9,0.3l0.5-0.8
			c5.8-9.6,10.3-16,10.8-16.7l0,0v0c-0.1-1.5-4.5-7-8.5-7c-1,0-3.2,2.9-6.6,8.7c-3,5.2-6.8,12.3-10.8,20.6l-0.1,0.1l-0.2,0.1
			c-5.2,1.8-10,3.6-13.9,5.2l-1,0.4l0.5-1c9.4-16.2,19.2-37.2,18.6-45.1c-0.2-2.5-1.9-5.5-4.5-8.1c-2.5-2.5-5.2-4-7.1-4h-0.2
			C59,2.3,42.9,12.9,29.7,28.9c-10.5,12.7-14.2,23.8-11.4,34c2.4,8.8,9.2,15.4,15.1,21.3c5.1,5,9.5,9.3,9.9,13.9
			c0.9,9.5-5.2,22.8-16.5,35.5c-5.1,5.7-10,8.9-13.9,9.1h-0.1c-1.1,0-2.2-0.6-2.3-1.8c-0.3-7.7,6.1-20.8,8.9-26.1
			c4.3-8.2,9.9-16.8,11.8-16.9l0.2,0l0-0.1c0-0.1-0.9-3.4-5-3.4c-0.1,0-0.2,0-0.3,0c-4.9,0.2-11,5.9-16.1,14.9
			c-4.9,8.8-7.8,19-7.8,27.7c0,0.6,0,1.2,0,1.7c0.1,3.4,1.7,7,4.3,9.9c2.4,2.7,5.4,4.4,7.6,4.3c5.9-0.2,14.1-5.6,21.8-14.3
			c5.1-5.8,9.6-12.5,12.6-19.1c3.3-7.2,4.8-14.3,4.4-20.5C52.3,88.2,45.6,81.5,39,75c-5.2-5.1-10-10-11.2-16.3
			c-1.3-7.1,2.3-15,11.3-25c11.9-13.2,22.7-20.6,30.5-20.9c0.9,0,1.7,0.3,2.2,0.8c0.6,0.7,0.8,1.6,0.7,2.8
			c-1,9.5-22.8,48.7-28.7,54.6l0,0l0,0.1c0.4,2.3,2.3,6.5,6.2,6.5c0.1,0,0.2,0,0.2,0c0.5,0,1.3-0.6,2.4-1.7l0.1-0.1
			c6-3.1,12.4-6.1,19.1-8.9l0.9-0.4l-0.4,0.9c-7.6,16.5-15.6,36.2-15.4,41.8c0.1,3.4,5.1,7.6,9.1,7.6c3.1,0,11-8.1,20.3-20.6
			l0.6-0.9l0,1.1l-0.3,0.1l0,0l0.3,0c0.2,6.6,7.1,13,12,13c1.4,0,3.2-1.1,5.4-3.4c7.6-7.8,16.4-25.7,16-36.1c0-0.5-0.1-1-0.3-1.5
			l-0.1-0.3l0.3-0.2c5.5-2.6,10.2-8.1,11.5-9.8l0.2-0.3l0.3,0.2c0.8,0.6,2.5,1.9,2.6,4.9c0.1,1.5-1.9,5-4.3,9.5
			c-3.9,7.3-8.8,16.3-8.6,22.5c0.1,4.1,6.1,10.8,10.6,10.8c2.7,0,6.8-3.8,12.2-11.4l0.4-0.6l0.3,0.6c1.6,3.8,5.4,6.1,8.1,6.1
			c1.6,0,4.9-2.8,9-7.6l1.6-1.9l-1,2.3c-0.9,2.1-2.8,6.4-5.5,12.1l-0.1,0.2l-0.2,0c-42.2,7.2-78.6,17.8-108.2,31.5
			c-1.6,0.7-2.3,2.8-2.1,5.5c0.3,3.3,2.2,7.2,5.6,8l0.1,0l0,0c21.3-12.2,49.2-22.5,83-30.7l0.6-0.1l-0.1,0.6
			c-0.7,2.9-1.3,6.1-1.2,9.6c0.1,3.8,4.9,6.3,9.3,6.3c4.8,0,10.7-7,18.4-22.1l0.1-0.2l0.2,0c38.8-7.3,80.2-11.2,119.7-11.2
			c20.2,0,39.1,1,56.4,3.1l0.1,0l0-0.1c0.1-0.3,2-6.8-3.5-9c-1.9-0.7-18.6-2.1-45.3-2.1c-28.9,0-73.5,1.6-121.9,9l-0.7,0.1l0.3-0.6
			c3-6.4,5.9-13.1,8.8-19.6l0.2-0.4c0.9-2.1,1.9-4.3,2.8-6.3l0.3-0.6l0.5-1C183.8,68.3,187.6,60.1,190.9,54z M92.1,76.7
			c-6.2,9.1-19.7,27-22.8,27c-0.2,0-0.4,0-0.5-0.1l-0.3-0.1l0.1-0.3c3.3-12,9.3-26,17.9-41.6l0.1-0.1l0.1,0c5.9-2.1,11.8-4,17.7-5.7
			l1.3-0.4l-0.9,1C101.4,60,96.2,67.5,92.1,76.7L92.1,76.7z M99.4,96.6c-1,1-1.6,1.3-1.9,1.3c-0.3,0-0.6-0.1-0.7-0.3
			c-0.2-0.3-0.3-0.6-0.3-1.1c0.9-9.8,7.8-22.6,13.9-31.4l0.2-0.3l0.3,0.3c1.1,0.9,1.8,2.6,1.9,3.5C113,74.1,104.3,91.5,99.4,96.6z
			 M151.7,117.3c-2.8,4.9-6.5,10.7-8.4,10.7c-1,0-1.4-1.4-1.5-2.3c-0.1-2,0.8-5.4,1.4-7.1l0.1-0.2l0.2,0c2.6-0.6,5.2-1.2,7.8-1.7
			l0.8-0.2L151.7,117.3z"/>
		<path class="st0" d="M349.2,7.5c-1.8,0-5.9,5.3-11.9,15.6c-3.8,6.4-7.3,13-8.2,14.9l-0.2,0.5l-0.4-0.4c-0.8-0.9-3.1-3.1-5.9-3.1
			c-4.6,0-15.2,9.8-24.2,25.5l0,0c-7.1,8.5-14.7,16.2-16.2,16.4h0c-0.2,0-0.5-0.1-0.6-0.3c-0.2-0.3-0.1-0.9,0-1.3
			c2.1-5.4,5.2-11.4,8-16.6c3.4-6.6,6.2-11.8,6.1-14.1c-0.1-3-5.1-5.7-8.1-5.7c-3.3,0-14,12.2-18.7,18.5l-0.6-0.4l0.1-0.2
			c0.4-0.6,0.7-1.2,1.1-1.8c2.2-3.7,4.3-7.1,4.2-9.7c-0.1-2-1.6-3.6-2.5-4.3l-0.3-0.2c-1.2-1-1.9-1.6-2.8-1.6
			c-0.6,0-0.8,0.2-0.9,0.4c-0.1,0.3-0.5,1.2-1.1,2.5c-2.5,5.4-8.3,18.2-12.3,25.9l0,0.1c-7.9,9.4-12.7,14.1-14.3,14.1
			c-0.9,0-1-1.5-1-2c-0.1-4.1,10.5-26.1,17-35.2l0-0.1l0-0.1c-0.1-0.1-2.3-3.4-5.9-3.4c-0.9,0-1.6,1.1-1.9,1.7l-0.2,0.5l-0.4-0.4
			c-1-1.1-3.2-3-5.9-3c-3.2,0-8.4,4.1-14.3,11.1c-5.5,6.7-10.7,15-13.6,21.8l-0.1,0.1c-5.5,6.2-12.6,12.8-15.3,12.8
			c-1.2,0-1.5-1.6-1.6-3.1c-0.2-2.6,0.2-5.8,1.2-9.6l0-0.1l0.1-0.1c20.3-17.5,38.1-44,37.8-52.6C235,17,228.1,12,223.3,12
			c-2.5,0-8.7,7.7-15.9,19.7c-7.9,13.1-14.4,27.1-17.9,38.5l0,0.1l-0.1,0.1c-2.9,2.3-5.7,4.2-8.2,5.7l-0.7,0.4l0.2,0.8
			c0.2,0.9,1.1,4,4,4c0.6,0,1.2-0.1,1.8-0.3l0.6-0.2l-0.1,0.6c-0.3,1.9-0.4,3.7-0.3,5.3c0.1,4.1,5.3,10.7,11.3,10.7
			c2.5,0,6.7-3.7,12.5-10.9l0.5-0.6l0.2,0.7c1.5,4.8,5.6,7.7,8.6,7.7c1.9,0,5.5-3.4,9.6-9.2l0.7-1v1.3c0.1,1.6,2.8,7.1,8.4,7.1
			c2,0,5.8-3,10.6-8.4l0.5-0.5l0.3,1c0.6,2.2,1.7,6.2,5.8,6.2c0.3,0,0.5-0.1,0.5-0.1l0,0c2.8-7.4,7-16.1,7-16.2l0-0.1
			c5.6-7.6,16-19.4,17.4-19.7c0.7-0.1,1.5,0.1,1.6,0.5l0.1,0.2l-0.1,0.1c-2.2,3.9-10.6,19.6-10.3,26c0.1,4.3,5.8,7.1,9.5,7.1h0.1
			c0.9,0,2.5,0,10.1-9.8L292,78l0.1,0.9c0.3,2.8,1.5,5.4,3.5,7.3c1.7,1.7,3.8,2.7,5.7,2.7c1.9,0,5.5-3.4,9.6-9.2l0.7-1v1.3
			c0.1,1.6,2.8,7.1,8.4,7.1c4.9,0,15.7-13.1,19.3-18.7c3-4.6-0.2-8.1-0.3-8.2l-0.1-0.1l-0.1,0.1c-0.2,0.2-0.7,0.7-1.3,1.4
			C323.5,77,321.4,77,320.8,77c-0.9,0-1-1.5-1-2c-0.1-3.3,31.1-54.7,37.1-63.2l0-0.1l0-0.1C356.8,11.5,355.5,7.5,349.2,7.5z
			 M204.8,54.3c8.8-17.9,20.5-33.8,22.8-34.3l0.3-0.1l0.1,0.3c0.1,0.2,0.1,0.4,0.1,0.8c0.1,3-9.6,18.9-22.7,33.7l-1.9,2.2
			L204.8,54.3z M230.2,71.4c-3.1,4.9-8.5,11.7-10.5,11.7c-0.6,0-1.1-0.7-1.1-1.3c-0.1-4,12.6-23.9,18.8-30.4c1.3-1.3,2.2-2,2.7-2
			c1.5,0,2.2,0.7,2.5,1.1l0.1,0.2l-0.1,0.2C241.2,55.1,231.3,69.8,230.2,71.4z M324.3,46c-1.5,4.1-11.4,18.5-12.5,20.2
			c-3.1,4.9-8.5,11.7-10.5,11.7c-0.7,0-1.1-0.7-1.1-1.3c-0.1-4,12.6-23.9,18.8-30.4c1.3-1.3,2.2-2,2.7-2c1.7,0,2.4,1.1,2.5,1.5
			l0.1,0.1L324.3,46z"/>
	</g>
	<g>
		<path class="st0" d="M203.6,135.1c0,0.8-0.2,1.6-0.6,2.2c-0.4,0.6-1,1.1-1.8,1.4c-0.8,0.3-1.6,0.5-2.6,0.5c-3.3,0-4.8-1.2-4.8-1.2
			c-0.7-0.5,0.4-2.9,1.1-2.6c0,0,1.6,0.9,3.1,0.9c0.8,0,2.1-0.3,2.1-1.2c0-2.6-6.3-2.1-6.3-5.8c0-0.7,0.2-1.4,0.5-2
			c0.4-0.6,0.9-1,1.6-1.4c0.7-0.4,1.6-0.5,2.7-0.5c3.1,0,4.5,1.1,4.5,1.1c0.5,0.3-0.8,2.6-1.4,2.3c-2.6-1.2-4.3-0.9-4.4-0.1
			C197,130.8,203.6,130.8,203.6,135.1z"/>
		<path class="st0" d="M221.9,127.3c0,0.6-0.5,1-1,1h-2c-0.6,0-1.1,0.5-1.1,1.1v8.6c0,0.6-0.5,1-1,1h-1.4c-0.6,0-1.1-0.5-1.1-1v-8.6
			c0-0.6-0.5-1.1-1-1.1h-2c-0.6,0-1-0.5-1-1v-0.6c0-0.6,0.5-1,1-1h9.6c0.6,0,1,0.5,1,1V127.3z"/>
		<path class="st0" d="M274,138c0,0.6-0.5,1-1,1h-1.4c-0.6,0-1-0.5-1-1v-11.3c0-0.6,0.5-1,1-1h1.4c0.6,0,1,0.5,1,1V138z"/>
		<path class="st0" d="M296.2,132.3c0,3.6-2.2,6.9-7.2,6.9c-4.9,0-7.2-3.3-7.2-6.9c0-3.6,2.2-6.9,7.2-6.9
			C294.3,125.4,296.2,128.7,296.2,132.3z M293,132.3c0-3.2-2.3-4.1-4-4.1c-1.9,0-4,1.1-4,4.1c0,3.2,2.2,4.1,4,4.1
			C290.9,136.4,293,135.3,293,132.3z"/>
		<path class="st0" d="M312.6,135.1c0,0.8-0.2,1.6-0.6,2.2c-0.4,0.6-1,1.1-1.8,1.4c-0.8,0.3-1.7,0.5-2.7,0.5c-3.3,0-4.8-1.2-4.8-1.2
			c-0.7-0.5,0.4-2.9,1.1-2.6c0,0,1.6,0.9,3.1,0.9c0.8,0,2.1-0.3,2.1-1.2c0-2.6-6.3-2.1-6.3-5.8c0-0.7,0.2-1.4,0.5-2
			c0.3-0.6,0.9-1,1.6-1.4c0.7-0.4,1.6-0.5,2.7-0.5c3.1,0,4.5,1.1,4.5,1.1c0.5,0.3-0.8,2.6-1.4,2.3c-2.6-1.2-4.2-0.9-4.4-0.1
			C306,130.8,312.6,130.8,312.6,135.1z"/>
		<path class="st0" d="M255.8,125.6h-4.3c-0.2,0-0.4,0.2-0.4,0.4v12.5c0,0.2,0.2,0.4,0.4,0.4h4.6c3.7,0,7.1-2,7.1-6.8
			C263.1,127.4,259,125.6,255.8,125.6z M255.2,136.2h-0.6c-0.1,0-0.2-0.2-0.2-0.4v-6.9c0-0.2,0.1-0.4,0.2-0.4h0.6
			c2.1,0,4.7,1,4.7,3.9C260,135.2,257.7,136.2,255.2,136.2z"/>
		<path class="st0" d="M242.4,125.6h-2.5c-0.2,0-0.4,0.2-0.4,0.4v6.3c0,1.2-0.4,3.8-3,3.8c-2.9,0-3.1-2.7-3.1-3.9V126
			c0-0.2-0.2-0.4-0.4-0.4h-2.5c-0.2,0-0.4,0.2-0.4,0.4v7c0,2,0.6,6.2,6.4,6.2c5.8,0,6.4-4.5,6.4-6.2v-7
			C242.8,125.8,242.6,125.6,242.4,125.6z"/>
	</g>
</g>
</svg>
